<svg xmlns="http://www.w3.org/2000/svg" viewBox="0 0 229.31 505.64"><defs><style>.cls-1{fill:none;stroke:#e15c91;stroke-miterlimit:10;stroke-width:6px;}.cls-2{fill:#d8779f;}</style></defs><title>上菜</title><g id="圖層_2" data-name="圖層 2"><g id="圖層_1-2" data-name="圖層 1"><circle class="cls-1" cx="20.5" cy="485.14" r="17.5"/><path class="cls-2" d="M112.73,0h1q9,1,14.94,15,12.95,18.93,15,18.93h4q35.88,6,34.88,16.94a9.56,9.56,0,0,0,2,5,27.39,27.39,0,0,1-11,12c-4.65.67-7.32,1-8,1q-29.89-12-28.9-23.91h-3l8,93.66q54.78-10,63.76-9,23.93,5,22.92,12.95a.88.88,0,0,0,1,1q-1,12-21.92,12a42.23,42.23,0,0,1-11-2q-32.88-3-74.73,13.95-46.85,15-58.79,14h-1q-15-1-17.94-14.94,2-18.93,69.75-24.91c2-2.65,3.32-7.31,4-14q2-95.65-8-113.59c-1.34-.65-2-4-2-10V3A23.65,23.65,0,0,1,112.73,0Z"/><path class="cls-2" d="M80.92,344.2h1q17.94,22.92,20.93,22.91,11-9,20.92-11,7,0,19.93,9,21.9-9.94,35.86-10,12,0,14.95,8v3q0,7-7,8A355,355,0,0,1,146.69,392v3c2,4,4.63,6,8,6q44.84-15.93,49.81-15.94h5q12.93,0,16.93,8v2q0,6-53.8,19.93-14,3-14,6t6,21.92v6h2q13.95-2,18.93-2,27.89,0,30.89,15.94v1q-2,7-17.93,7h-6q-12,0-27.9-5v8q0,18.93-15.94,23.92h-3q-8,0-24.91-25.91h-1l-14,12h-2q-8,0-12-12,0-3,24.91-29.89c2.65-4,4-7,4-9h-4q-35.87,14-56.79,13.95-14-3-14-12.95v-2q2-9,8-9v2l-2,3v1c0,1.34,1,2,3,2q24.9,0,88.68-25.91v-4c0-4.64-2.67-7-8-7q-3,4-51.81,14.95,4-3,44.84-15.94,31.88-15,41.85-24.91v-1h-4q-10,1-20.92,13.95h-8l-15-13.95h-1q-3,3-13,18.93l-2,1h-4Q87.9,387,80.92,344.2Zm93.66-87.69h1q7,4,7,13a7.76,7.76,0,0,0-1,3q18.91,6,18.93,11v3q0,2-21.92,6,0,3-16.94,22.92v2q20.93,0,20.92,13a.89.89,0,0,1,1,1v4q-7,13-22.92,12.95-15.94-4-22.91-9c-8,3.34-12.63,5-14,5v-2c0-1.32,2-2.64,6-4v-3c-3.34-4-8.64-6.63-16-8v-2q14-2,14-3l6,1h1q14.94,0,22.91-18.93,2,0,6-8v-3a7.55,7.55,0,0,1-3-1q-27.9,3-36.86,7l3,4v1c0,5.33-1,8.31-3,9h-4q-3-1-11-10-13,2-12.95,3Q71,302.37,71,288.4a7.67,7.67,0,0,0,1-3h2q0,9,15.94,9,15-1,15-6l-4-21.92c1.33-4,3-6.31,5-7h2v1l-1,4q6,17,10,21.92,8,0,57.79-12a14.12,14.12,0,0,0,2-8v-2A17.78,17.78,0,0,0,174.58,256.51ZM77.94,410v3h-2C75.94,411,76.6,410,77.94,410Zm54.8,50.81v2c1.32,3.34,2.64,5,4,5h2l3-10h-1C135.38,457.78,132.74,458.78,132.74,460.77Zm5-8h3c2-.65,3-2.65,3-6Q137.72,448.83,137.72,452.8Z"/></g></g></svg>