<svg xmlns="http://www.w3.org/2000/svg" viewBox="0 0 401.63 107.16"><defs><style>.cls-1{fill:#a31f24;}</style></defs><title>資產 4</title><g id="圖層_2" data-name="圖層 2"><g id="圖層_1-2" data-name="圖層 1"><path class="cls-1" d="M55.69,7.59h.84q14.76,6.33,14.77,8.86c0,2.26-2.53,4.22-7.6,5.91a3.27,3.27,0,0,0-1.26-.42,7.24,7.24,0,0,0-1.69,4.64v.84h.42L65,27c.56,0,2,.84,4.22,2.53q-.43,5.91-4.64,5.91A25.69,25.69,0,0,0,57,40.92c-3.94,2.26-5.9,3.66-5.9,4.22q-3,3-4.64,3l.42.85c-.85,0-2.95,2-6.33,5.9v.85A165.77,165.77,0,0,0,67.92,43.45c1.12,0,1.83-.7,2.11-2.11-1.13-1.68-1.69-2.8-1.69-3.37a.38.38,0,0,0,.43-.42q17.72,0,17.71,3.37,0,3.8-8.85,5.91c-.29.56-1.27,1-3,1.26q2.53,18.15,2.53,26.58c.28,0,.7,1,1.27,3q0,13.92-11,18.14a.38.38,0,0,1-.42.42,3.87,3.87,0,0,1-1.69-.42c-4.79.84-7.17,2-7.17,3.37-.57,0-.84.14-.84.42q-.85,0-4.22-4.64-5.07,0-12.66-12.23a20.25,20.25,0,0,1-1.27-5.49q0-5.48,9.71-8,5.89,0,10.54,14.34a13.18,13.18,0,0,0,.85,3.8l-.42,2.11.84.42h2.53A13.67,13.67,0,0,0,70,84a33.71,33.71,0,0,0,2.11-12.23V62.44q0-3.8-.42-11.81-1.69,0-24.89,10.54a87.08,87.08,0,0,1-16,5.91c-1.41,0-3-.85-4.64-2.53h-.43v1.26l1.69,14.77c0,2.81-1.13,4.22-3.37,4.22q-1.69,0-14.35-8.86-5.91-2.53-8-6.33,0-3,17.29-18.14V41.34h-.42c-4.22,2.54-6.75,3.8-7.59,3.8q-5.07,0-9.28-13.5C.84,31.64.28,30.52,0,28.27v-.43q2.54,0,8.86,6.33h1.27q8.43-4.64,8.43-7.17,0-9.27-3.37-15.19a3.86,3.86,0,0,0,.42-1.68h.84q2.11.42,5.91,11.39l3.37,2.95h.43a.38.38,0,0,0,.42-.42q7.59,1.68,7.59,5.9-.42,2.11-10.54,8.44l-.85,1.69c.28,2,.42,3.1.42,3.37l-.42,1.69a3.31,3.31,0,0,1,.42,1.27h1.27C25.31,44.16,26,43,26.58,43H27v.42q0,2.53-2.95,9.71c.84,1.68,1.26,4.36,1.26,8h.42L48.52,43.45c4.49-3.65,6.75-6.18,6.75-7.59-2,0-3.1-2.25-3.38-6.75a64,64,0,0,1,1.27-6.75c-.57,0-.85-.14-.85-.42l-.84.42a.37.37,0,0,1-.42-.42,15.49,15.49,0,0,0-3.8.84l-.84-.42a4.49,4.49,0,0,1-2.53.84q.84-2.1,11-6.75l.43-2.11a16,16,0,0,0-.85-5.06C54.7,8.16,55.12,7.59,55.69,7.59Zm-48.94,62Q10.13,72.15,19,75.52q.42-10.12.43-15.19V57.8h-.85Q6.75,67.51,6.75,69.61Zm35.44,8.86q0,6.75,9.7,11H54q-1.26-16-4.22-16.46H47.25C44.72,73,43,74.82,42.19,78.47Z"/><path class="cls-1" d="M115.59,14.34q13.93,0,13.93,7.18c.56,0,1,.7,1.26,2.11a57.55,57.55,0,0,1-5.06,11v.85h.42a16.44,16.44,0,0,1,6.33-1.69q5.06,1.26,5.06,5.06v3.38a112.51,112.51,0,0,1-6.33,18.56,18.87,18.87,0,0,0-1.68,4.64h.84l-3,6.75v1.69Q124,92.4,124,97q-1.69,4.64-3.37,4.64c-4-.84-5.91-2.81-5.91-5.9V91.13q0-23.62-4.22-35.44c0-1.41,1.27-2.53,3.8-3.38q1.68,0,11,3.8,5.05-10.55,5.06-14.34v-.85h-1.27Q114.33,51,112.64,51.05h-.84c-2.82-2-4.22-4.08-4.22-6.33Q121.5,24.89,121.5,20.25q-5.91-4.21-5.91-4.64Zm-1.68,44.72q1.26,9.28,3.79,19.83,1.27,0,5.07-16.45V62q-6.76-4.22-8-4.22C114.18,57.8,113.91,58.22,113.91,59.06ZM161.16,0q5.47,0,7.59,24.05h1.69c3.93,0,6.33,1.83,7.17,5.48q0,1.27-9.28,11.39a21.26,21.26,0,0,0,.84,5.06,3.8,3.8,0,0,0-.42,1.69c1.69,0,4.07-.84,7.17-2.53l-1.26-2.53V41.34h.42l7.17.43,2.11-.43q5.05,1.27,5.06,4.22,0,2.53-10.54,5.49c-5.35,1.68-8,3-8,3.79a18.21,18.21,0,0,1,.84,4.64,14.8,14.8,0,0,1-2.11,7.18q.84,13.08.85,14.76l2.11.42h6.33q10.53,0,16.87,2.54v1.26q0,2.11-9.7,5.06-6.33-.84-14.35-1.26V90.7q0,1.69.85,11.39-1.28,5.07-4.22,5.07h-2.11q-4.23-1.27-11.39-19.83h-.42q-4.65,6.33-6.33,7.17a1.7,1.7,0,0,1-1.69.84H146c-1.41-.84-2.82-2.8-4.22-5.9q0-3.37,11-16,0-4.22,4.64-12.24v-.84h-.42q-14.35,7.17-16.46,7.17a9.2,9.2,0,0,1-5.06-4.64q.84-3.37,12.66-11,8.85-8,8.86-8.86l-.85-.42-2.53.42q-5.49,0-8.43-15.61c.27-.84.56-1.26.84-1.26s2.67,2.39,7.17,7.17a32.82,32.82,0,0,0,11.39-6.75V19.83q0-18.55-4.22-18.56V.42C160.87.42,161.16.28,161.16,0Zm1.68,45.14q0,.86-6.75,6.75l-.42.84h.85q2.52,0,7.59-3.37V46a.74.74,0,0,0-.84-.84Zm-3.79,35v1.26h1.26l3.38-.42V79.73a.38.38,0,0,0-.42-.42l.42-.84v-3h-.85C162.28,75.8,161,77.35,159.05,80.16Zm.42,5.48v.84c1.69,2.82,2.81,4.22,3.37,4.22l.43-.84V86.48a.75.75,0,0,0-.85-.84Z"/><path class="cls-1" d="M262.83,5.91c4.49,1.12,6.75,2.53,6.75,4.22q0,5.05-6.33,7.17-21.51,7.59-26.16,7.59c-3.94.57-5.9,1.41-5.9,2.53.27,3.94.42,7.17.42,9.71v1.26c.28.57.56.84.84.84a89.26,89.26,0,0,1,12.24-7.17,19.74,19.74,0,0,0,.84-4.64h2.11l3,3q3,0,9.29-6.75l3.37-.85q3.38,0,8.86,3.38h.42a.37.37,0,0,0,.42-.43.39.39,0,0,1,.43.43c3.37-.28,5.9-.43,7.59-.43h2.11a.37.37,0,0,0,.42-.42q12.66,2.54,12.66,7.6v1.26q0,7.19-19,15.61a.37.37,0,0,1-.42-.42l-4.22.42h-3.8q-2.12,0-4.64,11.81h.43q23.19-5.48,35.43-5.48a8.5,8.5,0,0,1,8,4.64V62c0,1.12-2.39,2.11-7.17,2.95h-8.44q-16,0-16,2.53a41.08,41.08,0,0,0-.85,5.06q.84.43,4.65,11,4.64,7.18,11,8.86a12.87,12.87,0,0,1,4.64,6.33c-.56,1.4-1,2.11-1.26,2.11-.57,0-2.26.14-5.06.42q-16.46-11-22.78-11Q258.19,97,251.86,97q-6.75,0-14.34-10.55-5.93-4.64-8.86-4.64l.42-.84q5.89,0,16.45,10.55l2.53.84h.85q7.17,0,10.12-3.8v-.42a54,54,0,0,0-15.61-3.37q-2.53-3-2.53-4.22c0-1.12,1.83-3.38,5.49-6.75v-.42h-.85l-21.94,5.06c0,1.13.43,1.69,1.27,1.69v.42H224c-8.73-1.69-13.08-3-13.08-3.8V75.52q0-1.69,14.34-2.11a169.67,169.67,0,0,0,26.16-8q3.8,0,8.44-10.55V53.16h-.43L246.8,58.22h-2.53c-.29,0-1-.84-2.11-2.53v-.42q0-3.37,8-5.91l1.27-1.69q-3,0-5.06-11.39h-1.27q-10.55,5.91-10.55,8c.28,3.37.56,5.06.85,5.06a3.2,3.2,0,0,0-.43,1.27,77,77,0,0,0,4.22,13.92c-.56,2-1.26,3.09-2.11,3.37q-9.71,0-9.7-34.59,0-10.54,5.49-10.55,4.63,0,15.18-5.9V16c-.56-1.4-2.39-3.8-5.48-7.17l.84-.42h8Q260.71,5.91,262.83,5.91Zm-9.28,74.25q5.47,1.68,11,3,5.89-8.43,7.17-15.61a7,7,0,0,0-1.69-.42q-12.66,2.11-12.66,6.33C254.81,76.78,253.55,79,253.55,80.16Zm1.68-40.93c0,.57.7,1.41,2.11,2.54h.43q5.89-5.91,5.9-11v-.42q-7.59,0-7.59,5.06A18.66,18.66,0,0,0,255.23,39.23ZM262,26.58v.84h1.27v-.84Zm11,3q0,4.23-2.95,10.55v.42h1.69c1.12,0,2.53,1,4.22,3q5.89-1.26,12.65-10.54V31.22c0-1.12-2.81-2-8.43-2.53a.37.37,0,0,0-.43.42l-2.53-.42h-1.26Zm-1.26,54.85a24,24,0,0,0,6.75,2.53v-.43q0-.84-3.38-8.85h-.84A12.6,12.6,0,0,0,271.69,84.38Z"/><path class="cls-1" d="M359.86,5.06q3.79,0,6.75,12.24a22.88,22.88,0,0,0,14.77,5.48q4.2,1.7,4.64,3.38V27q0,4.65-14.35,4.64c-2.53.84-3.79,1.69-3.79,2.53a144.32,144.32,0,0,1,1.26,19.41V54q7.17-3.37,9.28-3.37c3.38,0,5.06,2.1,5.06,6.32l-.42.85a7.51,7.51,0,0,1,.85,3.37v.42c0,1.41-2.26,4.64-6.75,9.71v.84a64.2,64.2,0,0,0,11,1.69h2.53a35.11,35.11,0,0,0,4.64-.42q6.33.84,6.33,5.9V81c0,.84-1.42,1.41-4.22,1.69q-2.54,0-14.35-3.38-7.59,0-12.23-8,0-2.11,7.59-11.39a6,6,0,0,0,.85-3.38V54.42a.75.75,0,0,0-.85-.84H378q-3,0-8.86,8a214.76,214.76,0,0,0,2.53,35V97q-1.26,4.64-4.64,4.64v.42q-5.49-.84-13.92-13.92h-.84q-8,8.44-14.77,8.44c-2.81-1.69-4.22-3.23-4.22-4.64q0-1.68,9.7-16.45a3.78,3.78,0,0,0,.43-1.69V73a71.62,71.62,0,0,1-6.33-12.23q2.1-8.43,12.65-8.44,5.49,0,6.33,5.07l-7.59,16c.56,2,1.12,3,1.69,3H351Q361.13,65,361.13,62V59.91l2.1-24.47h-.42a55.16,55.16,0,0,1-16.87,6.33,2.45,2.45,0,0,0-1.69.42c-4.79-1.69-7.17-4.64-7.17-8.86v-.42c0-.28.42-.7,1.26-1.27h.85c.84,3.38,2,5.06,3.37,5.06q2.54,0,20.67-10.12V19.83q0-.84-4.64-8.44a18.85,18.85,0,0,1-.84-3.8V6.75A4.6,4.6,0,0,1,359.86,5.06ZM342.14,60.75v.42c0,2.26,1.12,4.64,3.38,7.17q1.26,0,2.11-8v-.85h-1.69C343.68,59.48,342.42,59.91,342.14,60.75Zm4.22,17.72a4.1,4.1,0,0,0-.84,3,2.26,2.26,0,0,0,1.68-2.53Zm9.28,4.64c0,.57,1.12,2.11,3.38,4.64a.74.74,0,0,0,.84-.84V84.8q0-2.11.42-6.33h-.42Q359.44,78.47,355.64,83.11Zm11.81-60.75a3.31,3.31,0,0,0-.42,1.27,3.22,3.22,0,0,1,.42,1.26h.85a.74.74,0,0,0,.84-.84A2.51,2.51,0,0,0,367.45,22.36ZM391.5,8q9.27,3,9.28,12.23c-.84,2.53-1.55,3.8-2.11,3.8q-7.17,0-7.17-5.91,0-.42-5.48-8V9.7C386,8.58,387.84,8,391.5,8Z"/></g></g></svg>