<svg id="圖層_1" data-name="圖層 1" xmlns="http://www.w3.org/2000/svg" viewBox="0 0 236.94 530.04"><defs><style>.cls-1{fill:#d8779f;}.cls-2{fill:none;stroke:#e15c91;stroke-miterlimit:10;stroke-width:6px;}</style></defs><title>美味</title><path class="cls-1" d="M534.67,283.57q18.12,5.46,18.14,15.48,0,6.38-26.74,30.05-10.52,10-10.51,10.93v2.73h3.82q13.36,0,15.29,10.93,0,1.83-15.29,21.85c0,.61.32.91,1,.91,1.27,0,3.49-.91,6.68-2.73h2.87q12.4,2.73,12.42,10v1.82q-6.7,9.1-6.69,11.83,22,7.31,22,11.84-2.87,6.39-31.52,20.95l-1,4.55q1.9,0,4.78,19.12a7.79,7.79,0,0,0-.95,3.64v1.83q0,3.65,36.29,6.37,13.37-37.33,13.37-57.37,0-15.46-7.64-20L567.14,391a9.36,9.36,0,0,1-1.91-5.46c.62-2.42,2.86-3.65,6.68-3.65q18.14,8.2,18.15,26.41,1.91,0,1.91,4.56-5.73,47.36-10.51,55.54v2.73q25.8,18.23,30.57,24.59,2.87,3.63,2.86,5.46,0,3.63-9.55,6.38-1.92,0-43.93-20-3.82,0-31.52-6.37,0,8.19-18.15,18.21-10.51,1.81-22.92,2.73-15.29,0-40.11-16.39-17.19-16.39-18.15-25.49V458.4q4.77-6.36,18.15-6.37l4.77.91a408.45,408.45,0,0,1,65.9,5.46v-.91l1-5.46V440.19l-1-6.37h-1.91Q488.82,449.31,486,449.3h-2.87q-6.69-3.63-6.68-10.93,0-4.55,21-26.41v-1.82H493.6c-7-1.82-10.51-6.06-10.51-12.75q0-8.19,16.24-26.4v-1.82h-2.87Q485,366.44,485,357.33q0-7.27,11.46-20.95-11.46,0-29.61-20l5.74-.91a70.3,70.3,0,0,0,14.32,1.82h1q10.5,0,38.2-30.05ZM437.25,462.05v1.82q14.33,28.23,41.07,28.23h12.41q13.36,0,25.79-14.57v-.91q-7.65-5.47-74.5-14.57Zm73.54-42.8a.83.83,0,0,1,.95.91c2.54-1.21,4.14-2.42,4.78-3.64v-.91h-2.87C512.37,415.61,511.42,416.83,510.79,419.25Zm10.5-8.2v2.74h1.91c6.36-3.65,9.56-7,9.56-10L529.89,402H528Q521.29,405.6,521.29,411.05Z" transform="translate(-420.06 -260)"/><path class="cls-1" d="M462.08,639.79q26.73,3.66,26.74,21-2.86,10-2.86,11.84h1l4.78-.91v.91a23,23,0,0,0,1.91,9.1q-4.8,21-19.1,30.05c-5.11,2.44-8,3.64-8.6,3.64s-2.55-1.2-5.73-3.64H457.3v1.82c0,.62.32.91,1,.91q-4.78,8.2-10.51,8.2-15.28-5.46-15.28-25.5l-1.91-2.73,1-1.82q-2.86-40.07-11.46-43.71v-2.73h5.73Q425.79,643.44,462.08,639.79ZM443,655.27h-3.82V658q5.73,4.56,13.37,38.24h1q16.23-24.59,16.24-40.06l-2.87-1.83Q453.47,655.29,443,655.27Zm102.19-94.7q16.23,7.3,16.24,33.7v6.37l12.41,7.28a9.55,9.55,0,0,1,1.91,5.47v.91q0,2.73-9.55,13.66v1.82q15.27,25.5,32.48,31c3.17.61,4.77,2.73,4.77,6.37q0,3.66-15.28,8.2-20.05,8.19-20.06,11.84,0,6.38-8.59,23.67a76.21,76.21,0,0,1-1,10.93l1.91,14.57h43.94q16.23,0,20.05,10.93l-2.86,1.82q-38.22-4.55-60.17-9.11v.91q1.9,27.32,1.91,34.6v.91Q561.39,790,552.81,790q-13.38,0-29.61-31.87h-2.86l-7.64,5.47h-1q-11.46-2.75-11.46-6.38v-3.64q0-5.46,20.06-27.32.95-2.73,8.6-14.57c1.26-2.42,1.91-3.94,1.91-4.55-.65,0-1-.3-1-.91q-27.7,15.5-36.29,19.12-11.46-2.73-11.46-11.84,0-7.27,41.06-51.9,22-21.85,22-40.07h-2.86q-22,2.73-22,9.11h-3.82c-3.19-1.82-4.78-4.24-4.78-7.29v-.91q0-8.19,30.57-14.57c3.17-.59,4.77-1.82,4.77-3.64v-.91q-9.55-25.49-9.55-39.15C541.35,561.8,543.89,560.57,545.17,560.57ZM512.7,685.32l.95,1.83V689q-3.82,0-11.46,13.66l1,1.82q37.25-17.3,37.25-25.5V664.38l1.91-4.55-2.87-.91q-7.65,9.11-13.37,11.83Q526.07,674.41,512.7,685.32Zm20.06,61q0,6.39,5.73,12.75h1v-17.3l-1.91-2.73C534.34,740.27,532.76,742.69,532.76,746.33ZM559.5,636.15q-1,29.16-1,37.34h1q2.87,0,19.1-11.84v-1.82q-6.69-10-16.24-25.5h-1C560.12,634.33,559.5,634.94,559.5,636.15Z" transform="translate(-420.06 -260)"/><circle class="cls-2" cx="216.44" cy="20.5" r="17.5"/></svg>