<svg xmlns="http://www.w3.org/2000/svg" viewBox="0 0 191.21 106.99"><defs><style>.cls-1{fill:#a31f24;}</style></defs><title>資產 3</title><g id="圖層_2" data-name="圖層 2"><g id="圖層_1-2" data-name="圖層 1"><path class="cls-1" d="M20.63,5.16h1.71A12.31,12.31,0,0,1,33.52,11.6v2.58l-12.47,6a.37.37,0,0,0-.42.43v.85q3,0,7.73,5.59,6-2.14,9-2.15c.86,0,2.43,1.29,4.73,3.87q-.44,3.43-9.88,12.89h.86a18.4,18.4,0,0,0,4.29-1.29,9.17,9.17,0,0,1,4.3,3v.86l-12,11.17.86.43c1.72-.28,2.72-.43,3-.43q3.43,0,4.72,6a44.17,44.17,0,0,1-6.87,9q-4.31,33.09-11.6,33.08c-.86,1.43-3.16,2.58-6.88,3.44v-.43q1.29-5.58,6-13.75,5.58-15,5.58-18.47h-.43q-6,4.29-11.17,4.29-4.73-2.58-4.73-6,0-1.71,16.33-16.76l.43-.86V53.71h-.43Q9.88,60.16,4.3,60.16,0,59.31,0,55.43q0-1.71,9.88-4.3a30,30,0,0,0,9.46-6c-1.15-2.86-1.87-4.3-2.15-4.3q3.87-10.74,3.86-12v-.86c0-.86-1.86-1.57-5.58-2.15a4.92,4.92,0,0,1-1.72-3.44v-.43q9.88-4.71,12.46-10.74c0-1.43-1.87-3-5.58-4.72Zm4.29,53.28q0,.86-5.58,7.73a5,5,0,0,0-1.72,3.44h.43q9-3.44,9-7.31c-.29-2.57-.72-3.86-1.29-3.86Zm4.3-24.06c.28.57.57.85.86.85a22.7,22.7,0,0,0,3.44-4.29V29.65h-.43C30.51,30.8,29.22,32.37,29.22,34.38Zm1.72,24.49v1.29h.86V58.87ZM59.3,2.15h.86q9,0,10.31,19.76.86,0,3.44,3.44v1.72c-2.3,2-3.44,3.59-3.44,4.73v3L70.9,37l13.75-1.29q4.72,0,6.44,5.16-1.71,3.45-13.75,11.6,0,3.87-6.44,6.88v.43c.57,1.43,1,2.15,1.29,2.15A51.15,51.15,0,0,0,70,75.2a4.82,4.82,0,0,1,.43,2.14L70,79.92h.43c5.44-.28,8.87-.43,10.31-.43q7.31,0,10.74,6c0,.57-.57,1.15-1.72,1.72q-2.56-1.73-19.33-2.58v.43L70,90.23h.43l-.43.86v2.58c-.29,4.58-1.15,6.88-2.58,6.88H66.6Q59.3,99.26,59.3,95c-1.72-4.3-2.87-6.58-3.44-6.87h-.43a39,39,0,0,0-4.3,3h-.86q-5.15-.86-5.15-4.29.42-2.14,12.46-14.61L59.3,67v-.86H57.58l-4.3,2.15q-4.31,0-4.3-5.59-2.56-3-2.57-12.46A3.38,3.38,0,0,0,46.84,49q-.44-4.29-1.29-4.29a4.65,4.65,0,0,1-2.58.86,59.83,59.83,0,0,0,6.87-7.31,36.86,36.86,0,0,0,9.89-8.16q-4.3-5.58-8.17-7.31a7.69,7.69,0,0,1,3.87-1.29,27.87,27.87,0,0,0,6.87.86v-3Q62.3,15.91,58,6a3.38,3.38,0,0,0-.43-1.29C58.15,3,58.72,2.15,59.3,2.15ZM49.84,44.26Q52.42,58,53.28,59.73h.43A20.41,20.41,0,0,0,62.3,55V40.82H59.73a.38.38,0,0,0-.43.43l-.86-.43Q49.83,43.4,49.84,44.26ZM60.59,34.8q0,.44-8.17,4.73v1.29h.43q9.88-1.71,9.88-3a12.94,12.94,0,0,1-.43-3Zm11.17,4.73c.86,2.3,1.86,4.73,3,7.31a17.55,17.55,0,0,0,8.16-6.45V39.1H81.64a12.93,12.93,0,0,1-3.87-.43A36.07,36.07,0,0,0,71.76,39.53Z"/><path class="cls-1" d="M152.54,0q10.31,2.58,10.31,7.3,0,3.87-7.3,5.59c-4.3,2.87-6.6,4.44-6.88,4.73l-1.72.43v1.29h.43a113.67,113.67,0,0,1,18.91-5.59q4.29,0,6.44,5.59,0,3-16.75,6.87-3.45,1.72-9.89,5.59-6.87,0-6.87,2.58-1.72,12-1.72,13.32h.43q9.45-2.58,9.45-4.3a97,97,0,0,1-1.72-9.88,1.75,1.75,0,0,0,.43-1.29q.85.85,5.16,9.88h1.29q3-.86,9-12.89a6.9,6.9,0,0,1,4.3-1.72,18.32,18.32,0,0,1,7.73,4.73q6.45-3,10.75-3h.86q5.58.87,5.58,5.58a19.17,19.17,0,0,1-4.73,3l-.85-.43h-.86q-9.9,1.29-9.89,6.45,0,.87-3.86,6c.28,2,.57,3,.86,3q-2.58,3-10.75,12.46v.43h.43q9.45-3.43,10.75-3.44,7.73,0,11.17,9.89v1.29a18.81,18.81,0,0,1-2.58,9.88q8.16,4.73,10.31,10.31c0,.86.14,1.29.43,1.29-.58,3.44-1.72,5.16-3.44,5.16q-1.71,0-14.61-8.17h-.86q-7.73,3.43-13.75,3.44h-1.71q-7.74,0-13.32-12.46V79.49q0-.85,4.29-3.44,0-4.29,7.74-12.89Q153,59.74,153,58V55c-1.44,0-2.87-1.57-4.3-4.73a14,14,0,0,0-3.87,1.29l-3-.43-3,.43v-.43c-1.15,0-1.72,1.87-1.72,5.59v8.16q-1.73,29.66-9.45,29.65-6.89,0-6.88-14.18h.86c1.43.86,2.15,1.72,2.15,2.58h.43q2.14,0,7.3-21.91l7.31-30.51h-.43q-3.87-2.15-3.87-6V23.2q0-3.86,12.89-11.17C151.1,9.17,153,7.3,153,6.45a9.84,9.84,0,0,0-4.73-4.3V1.72Q148.24.86,152.54,0Zm-4.73,81.21V82.5q3.87,5.59,7.74,5.59h1.72c2.57-.29,3.86-.86,3.86-1.72v-.86Zm9.46-33.51c.28,1.43.57,2.14.86,2.14q.85,0,4.29-4.29v-.86H162A12,12,0,0,0,157.27,47.7Zm2.14,29.64q0,.87,10.75,2.58c2.57-3.15,3.86-5.72,3.86-7.73v-.43l-.43-3h-.86Q167.59,68.75,159.41,77.34Zm.86-40.82V37c4.3-.28,6.45-1.29,6.45-3a3.86,3.86,0,0,0-2.15-2.58h-.43C163.28,31.66,162,33.37,160.27,36.52Z"/></g></g></svg>