<svg id="圖層_1" data-name="圖層 1" xmlns="http://www.w3.org/2000/svg" viewBox="0 0 455 174"><defs><style>.cls-1{fill:#133072;}</style></defs><title>logo_ol</title><path class="cls-1" d="M82.63,40.68S61.36,52,71.29,69c0,0,0-8.51,1.42-11.34s1.41,8.51,1.41,12.76c0,0,7.09-1.42,8.51-8.51S82.63,40.68,82.63,40.68Z"/><path class="cls-1" d="M97.12,44.22s-13.76,6.49-7.34,16.21c0,0,0-4.86.92-6.48s.92,4.86.92,7.29c0,0,4.58-.81,5.5-4.86S97.12,44.22,97.12,44.22Z"/><path class="cls-1" d="M115.83,46.75s-15.2.26-13.34,11.76c0,0,2-4.43,3.5-5.53s-1.16,4.81-2.16,7c0,0,4.51,1.14,7-2.18S115.83,46.75,115.83,46.75Z"/><path class="cls-1" d="M116.83,62.42S95.22,61.21,99,75.71c0,0,2.39-5.31,4.42-6.53s-1.17,5.87-2.36,8.53c0,0,6.53,1.88,9.76-2S116.83,62.42,116.83,62.42Z"/><path class="cls-1" d="M91.1,66.91s-25.38,11.36-13.8,29c0,0,.1-8.74,1.82-11.64S80.7,93,80.65,97.4c0,0,8.43-1.36,10.2-8.63S91.1,66.91,91.1,66.91Z"/><path class="cls-1" d="M53.88,65.48S74.82,75,65.27,89.67c0,0-.08-7.29-1.5-9.71s-1.3,7.31-1.26,11c0,0-7-1.13-8.42-7.2S53.88,65.48,53.88,65.48Z"/><path class="cls-1" d="M56.78,48.29S68.64,53.66,63.23,62c0,0,0-4.13-.85-5.5s-.74,4.14-.71,6.21c0,0-3.94-.64-4.77-4.08S56.78,48.29,56.78,48.29Z"/><path class="cls-1" d="M87.6,23.66a62.41,62.41,0,0,0-62.41,62.4c0,1.64.09,3.26.21,4.86h0l0,.22a61.31,61.31,0,0,0,1,7.35v.05h0q.57,2.74,1.37,5.4h0a18,18,0,0,0,2.12,6h0a61.06,61.06,0,0,0,3.18,6.56h0l0,0a61.7,61.7,0,0,0,3.6,5.67v0h0A62.39,62.39,0,1,0,87.6,23.66ZM44.94,121.28c13.94,1.08,25.64,14.67,25.64,12.29A14.67,14.67,0,0,1,72,127.9c-14-10.67-24.78-12.81-31.43-12.72a57.85,57.85,0,0,1-3.3-6.17c8.72-.42,23.47,1,34.73,13.22,1.41-1.42,2.83-5.68,2.83-5.68a61.79,61.79,0,0,0-39.78-13.23,53.23,53.23,0,0,1-1.5-5.51C66,95.68,76.25,112.3,76.25,112.3a14.67,14.67,0,0,0,1.42-5.67c-14.1-14.1-34.52-16.09-45.19-16.07-.12-1.48-.2-3-.2-4.5A55.32,55.32,0,0,1,141.89,75.48c-15.7-.63-58.34,3.43-67,64.41A55.28,55.28,0,0,1,44.94,121.28Zm54.32,18.85c-2-17.06,14.57-30.19,14.57-30.19,14.19,5.6,18.44-8.4,18.44-8.4l-2.83-1.4c-7.1,11.2-11.35,5.6-11.35,5.6l9.93-7v-2.8s-11.35,5.6-12.77,7c-1.42-8.4,11.35-8.4,11.35-8.4v-2.8h-2.84c-15.6,1.4-12.76,12.6-12.76,14-17.53,14.42-19,28.18-18.22,35.38-1.71.16-3.43.25-5.18.25-1.49,0-3-.07-4.42-.19.88-15.07,6.36-58.18,59.14-60.43h.33c.17,1.75.26,3.52.26,5.31A55.32,55.32,0,0,1,99.26,140.13Z"/><path class="cls-1" d="M225,79.74q-9.47,7.77-13.77,9.91a16.53,16.53,0,0,1-7,2.1,14.34,14.34,0,0,1-8.88-3.22c-2-1.6-3-2.91-3-4l.24-3.61,7.81.2c.56,0,1.84-.67,3.86-2q1.13-.68,9.87-4.1,3-1.22,14.89-8,5.76-3.33,10.25-3.33a6.16,6.16,0,0,1,4.54,2.1,5.2,5.2,0,0,1,1.47,3.67,4.76,4.76,0,0,1-.78,3q-1.32,1.6-8.21,6.29a53.93,53.93,0,0,0-7.37,7.08q-2.79,3-8.74,8.74a20.73,20.73,0,0,1,3.56,2l2.79,2.39c.1.1.16.15.19.15a2.85,2.85,0,0,0,.69-.35l1.27-3.85,2-3.81c.1-2.87.24-4.46.44-4.79a3.2,3.2,0,0,1,3-1.71,4.61,4.61,0,0,1,3.36,1.66,4.34,4.34,0,0,1,1.23,2.93,7.58,7.58,0,0,1-1.32,4.25c-2,3-3,4.69-3,5.18a1.89,1.89,0,0,0,.63,1.07,3.32,3.32,0,0,0,1.42,1.13l3.32.87a29.59,29.59,0,0,1,1.66-5.17,2.15,2.15,0,0,1,1.32-.73q1.13,0,1.32,1.71c-.52,5.37-.82,8.13-.88,8.3a3.54,3.54,0,0,1-1.56,1.92,4.55,4.55,0,0,1-2.54.86q-3.57,0-10.31-6.3,2.69,5.67,2.69,8.4a54.43,54.43,0,0,1-1.9,8.25c-1,3.65-2.1,5.94-3.28,6.89a4.22,4.22,0,0,1-2.58.92,2.41,2.41,0,0,1-2.25-.92q-.15-.3-1.07-21.2a4.68,4.68,0,0,0-4.45-4.34,2.65,2.65,0,0,0-1.41.29q-1.86,1.13-17.34,16.94a6.49,6.49,0,0,1-4.54,2.25c-.81,0-1.22-.47-1.22-1.42a2.36,2.36,0,0,1,.39-1.22q.3-.44,16.41-17.82l11.18-11.91Q220.59,86,225,79.74Zm-14.94-12.6a54.24,54.24,0,0,1,5.81-4.69l4.79-2.88a6.12,6.12,0,0,0,2.63-2.39c.2-.39.28-.6.25-.63l-7.08-6.21-3.76-4.15-1.51-1.46,6.44-.73q8.25.54,12,2.44a15.61,15.61,0,0,1,6.45,5.42,6.45,6.45,0,0,1,1.12,3.61,5,5,0,0,1-1.9,4.1,9,9,0,0,1-4.35,2l-6.69,1Q212.74,66.51,210.09,67.14Zm26.61,56.4q4.2-6.65,6.2-10c1.89-3,3.33-5.19,4.3-6.5a19.8,19.8,0,0,0,2.49-3.61l1.91-9a2,2,0,0,1,2.14-1.76,12.83,12.83,0,0,1,5.47,1.56l-.29,4.79.05.14q-.35,1.56-2,6.89a6.28,6.28,0,0,0-.3,1.71,11.28,11.28,0,0,0,1.91,5.37c1.14,2,2.23,3,3.27,3a2.39,2.39,0,0,0,1.32-.59q1.36-1,2.39-4.59a33.55,33.55,0,0,0,1.32-6.89q.58-6.73,1.51-13.18a12.64,12.64,0,0,0,.15-1.61,5.4,5.4,0,0,0-1.27-3.76A4.13,4.13,0,0,0,264,84.28a7.39,7.39,0,0,0-3.25.88c-1.19.59-3.39,1.9-6.61,4a14.39,14.39,0,0,1-7.52,2.64q-3.81,0-5.72-2a3.51,3.51,0,0,1-.63-1.56l6-3.22,10.5-5.86a18.19,18.19,0,0,1,8.84-2.3,12.31,12.31,0,0,1,9.57,3.91A10.69,10.69,0,0,1,278,88.09q0,4.48-3.9,18.5Q271.17,117,269,119.34a15.6,15.6,0,0,1-6.5,3.66,9.65,9.65,0,0,1-1.46.39,3.25,3.25,0,0,1-1.07-.34q-.19-.1-7.08-10.64L241,123.25a4.06,4.06,0,0,1-2.2.48A15,15,0,0,1,236.7,123.54Z"/><path class="cls-1" d="M313.3,94.58q10.15-4.87,12.79-7.27t27.54-36l.78-1.12c.39-.49.6-.77.63-.83l.15-.15-.34-4.05c0-.16.44-.62,1.32-1.37a6.52,6.52,0,0,1,4.34-1.51q3.66,0,5.37,1.85a3,3,0,0,1,.78,2.06q0,4.14-9.76,16.45,11.24.1,16.21,1.86,6.58,2.3,9.57,6.69A6.28,6.28,0,0,1,384,74.51a3.07,3.07,0,0,1-1.07,2.35,3.43,3.43,0,0,1-2.35,1q-7.62,0-19.87-6.64A16.24,16.24,0,0,0,353.09,69c-1,0-2.15.65-3.32,2,1.56-.1,2.9-.15,4-.15a9.68,9.68,0,0,1,5.91,1.52q1,.78,2.49,4.44,6.84.44,7.33.59a4.43,4.43,0,0,1,2.34,1.76A5.92,5.92,0,0,1,373,82.52q0,1.32-2.73,10.16c-1.3,4.17-2,6.31-2.05,6.44a25.28,25.28,0,0,1-2.44,3.81q4.78-2.54,5.91-4.88A52.19,52.19,0,0,0,373,92.87c.1-.48,1.11-.94,3-1.36,2.51,1.27,3.76,2.58,3.76,3.95q0,2.69-3.81,6.11a58.65,58.65,0,0,1-9.62,6.15q9.48,1.17,12.8,3.17,6.09,3.72,7.91,4.93c1.69,1.11,2.62,2,2.78,2.69A7.31,7.31,0,0,1,390,120a3.56,3.56,0,0,1-.93,2.49,5.21,5.21,0,0,1-4,1.47,34.89,34.89,0,0,1-7.27-.88l5.13-2.69q-5.19-3.08-9.28-5.37-6.21-3.46-9.91-3.46c-2.05,0-5.08.92-9.09,2.78q-.09-1.17-.09-2a3.33,3.33,0,0,1,.44-2,6.9,6.9,0,0,1,2.19-1.37,54.88,54.88,0,0,0,5.18-2.64,29.58,29.58,0,0,0,3.76-3.37,9.92,9.92,0,0,0-1,.74L356.61,102a22.58,22.58,0,0,0-2.91,1.15,27.84,27.84,0,0,0-2.81,1.3,3.66,3.66,0,0,0-.68,2.44,49.51,49.51,0,0,0,1.27,10.5c.45,2,1,3,1.76,3q1.51,0,12.5-8.3-7.58,15.14-14.8,15.14-2.25,0-3.61-3.47-2-5-2-15.48,0-5.46,1.22-19.48c-1,.07-1.87.1-2.59.1-1.89,0-3.21-.5-4-1.51a2.86,2.86,0,0,1-.68-1.71,1.25,1.25,0,0,1,.2-.59,21.56,21.56,0,0,1,2.78-.73q10.05-3.76,10.69-4.45a5.83,5.83,0,0,0,.64-1.51.85.85,0,0,0,.1-.34c0-.49-.87-1.5-2.59-3l-2.35-2.2a1.73,1.73,0,0,0-.73-.14q-1.8,0-5,4.29a61.84,61.84,0,0,1-13.82,13.68q-6,4.29-11.57,4.29A33.49,33.49,0,0,1,313.3,94.58Zm35.05-5.81A8.07,8.07,0,0,1,350.5,91a6.34,6.34,0,0,1,.59,3.07c0,.62,0,1.5-.1,2.64q5.17-2.3,5.18-4.15,0-1.17-2.88-2.34c-1.37-1.37-2.41-2-3.13-2A4.21,4.21,0,0,0,348.35,88.77Zm3-1.36c1.5-.07,2.62-.1,3.37-.1q7.82,0,7.81,4,0,1.52-2.29,4.2c1.33-.65,2.07-1.2,2.2-1.66q2.34-8.36,2.34-8.64a2.1,2.1,0,0,0-1.32-1.91,2.72,2.72,0,0,0-1.27-.34,9.55,9.55,0,0,0-3.81,1.07Q355.24,85.51,351.33,87.41Z"/></svg>