<svg id="圖層_1" data-name="圖層 1" xmlns="http://www.w3.org/2000/svg" viewBox="0 0 109.77 40.96"><defs><style>.cls-1{fill:#133072;}</style></defs><title>logotext</title><path id="Path_9" data-name="Path 9" class="cls-1" d="M1004.13,567.1a42.44,42.44,0,0,1-6.6,4.77,7.87,7.87,0,0,1-3.37,1,6.82,6.82,0,0,1-4.26-1.56c-1-.77-1.46-1.4-1.43-1.9l.12-1.74,3.74.09a5.21,5.21,0,0,0,1.85-1c.36-.22,1.94-.87,4.73-2,1-.39,3.35-1.69,7.14-3.88a10,10,0,0,1,4.92-1.6,2.94,2.94,0,0,1,2.18,1,2.47,2.47,0,0,1,.7,1.76,2.24,2.24,0,0,1-.38,1.44,24.06,24.06,0,0,1-3.93,3A26.54,26.54,0,0,0,1006,570c-.89,1-2.28,2.38-4.19,4.21a10.2,10.2,0,0,1,1.71.95l1.34,1.15s.07.07.09.07a1.29,1.29,0,0,0,.33-.17l.61-1.85,1-1.84a9,9,0,0,1,.21-2.31,1.55,1.55,0,0,1,1.43-.82,2.21,2.21,0,0,1,1.61.8,2.09,2.09,0,0,1,.59,1.41,3.65,3.65,0,0,1-.63,2,9.92,9.92,0,0,0-1.46,2.49.91.91,0,0,0,.3.52,1.56,1.56,0,0,0,.68.54l1.6.43a13,13,0,0,1,.8-2.5,1,1,0,0,1,.63-.35c.36,0,.57.27.63.82-.25,2.59-.39,3.92-.42,4a1.73,1.73,0,0,1-.75.93,2.15,2.15,0,0,1-1.22.41q-1.71,0-4.94-3a10.88,10.88,0,0,1,1.29,4,25.81,25.81,0,0,1-.92,4,6.9,6.9,0,0,1-1.56,3.32,2,2,0,0,1-1.25.44,1.14,1.14,0,0,1-1.07-.44q-.07-.15-.52-10.21a2.25,2.25,0,0,0-2.13-2.1,1.34,1.34,0,0,0-.68.14q-.89.55-8.31,8.17a3.12,3.12,0,0,1-2.18,1.08c-.39,0-.59-.23-.59-.68a1.25,1.25,0,0,1,.19-.59q.15-.21,7.87-8.59l5.36-5.74C1001.8,570.32,1002.71,569.1,1004.13,567.1ZM997,561a25.06,25.06,0,0,1,2.79-2.26l2.3-1.39a3,3,0,0,0,1.26-1.15.94.94,0,0,0,.12-.31l-3.4-3-1.8-2-.73-.71,3.09-.35a15.76,15.76,0,0,1,5.76,1.18,7.55,7.55,0,0,1,3.1,2.61,3.15,3.15,0,0,1,.53,1.74,2.39,2.39,0,0,1-.91,2,4.25,4.25,0,0,1-2.08,1l-3.21.47c-3.7,1.27-6,2-6.82,2.21Zm12.77,27.17q2-3.19,3-4.8c.91-1.46,1.59-2.5,2.06-3.13a10.35,10.35,0,0,0,1.2-1.74l.91-4.33a1,1,0,0,1,1-.85,6.16,6.16,0,0,1,2.62.76l-.14,2.3,0,.07c-.11.51-.43,1.61-1,3.32a2.89,2.89,0,0,0-.15.82,5.47,5.47,0,0,0,.92,2.59c.54,1,1.07,1.44,1.57,1.44a1.18,1.18,0,0,0,.63-.29,4.3,4.3,0,0,0,1.15-2.21,15.6,15.6,0,0,0,.63-3.31c.19-2.17.43-4.28.73-6.36a6.48,6.48,0,0,0,.07-.77,2.64,2.64,0,0,0-.61-1.81,2,2,0,0,0-1.57-.62,3.54,3.54,0,0,0-1.56.43c-.57.28-1.63.92-3.17,1.9a6.92,6.92,0,0,1-3.61,1.28,3.61,3.61,0,0,1-2.74-1,1.74,1.74,0,0,1-.3-.76l2.9-1.55,5-2.82a8.6,8.6,0,0,1,4.24-1.11,5.9,5.9,0,0,1,4.59,1.88,5.19,5.19,0,0,1,1.33,3.58c0,1.44-.62,4.42-1.87,8.92q-1.41,5-2.46,6.14a7.51,7.51,0,0,1-3.12,1.76,5.13,5.13,0,0,1-.7.19,1.54,1.54,0,0,1-.51-.17c-.06,0-1.2-1.74-3.4-5.13l-5.69,5.23a1.86,1.86,0,0,1-1.06.23,6.76,6.76,0,0,1-1-.09Z" transform="translate(-987.99 -549.03)"/><path id="Path_10" data-name="Path 10" class="cls-1" d="M1061,574.25a31.1,31.1,0,0,0,6.14-3.5q1.18-1.08,13.2-17.36l.38-.54a3.84,3.84,0,0,0,.3-.4l.07-.07-.16-2q0-.12.63-.66a3.1,3.1,0,0,1,2.08-.73,3.35,3.35,0,0,1,2.58.89,1.45,1.45,0,0,1,.37,1q0,2-4.68,7.93a26.11,26.11,0,0,1,7.77.89,8.83,8.83,0,0,1,4.59,3.22,3,3,0,0,1,.61,1.63,1.46,1.46,0,0,1-.51,1.13,1.68,1.68,0,0,1-1.13.47q-3.65,0-9.53-3.2a7.64,7.64,0,0,0-3.63-1.08,2.25,2.25,0,0,0-1.59.94c.75-.05,1.39-.07,1.92-.07a4.57,4.57,0,0,1,2.83.73,6,6,0,0,1,1.2,2.14c2.18.14,3.35.23,3.51.28a2.05,2.05,0,0,1,1.12.84,2.89,2.89,0,0,1,.54,1.67,33.08,33.08,0,0,1-1.31,4.9c-.62,2-1,3-1,3.1a12.92,12.92,0,0,1-1.17,1.83,6.36,6.36,0,0,0,2.83-2.35,23.88,23.88,0,0,0,.63-2.49c.05-.24.53-.46,1.45-.66,1.2.61,1.8,1.24,1.8,1.9,0,.87-.6,1.85-1.82,2.94a28.3,28.3,0,0,1-4.61,3c3,.37,5.07.88,6.13,1.53,2,1.19,3.22,2,3.79,2.37.82.53,1.26,1,1.34,1.3a3.26,3.26,0,0,1,.07.7,1.73,1.73,0,0,1-.45,1.2,2.48,2.48,0,0,1-1.92.71,16.32,16.32,0,0,1-3.48-.43l2.45-1.29q-2.47-1.49-4.45-2.59a10.59,10.59,0,0,0-4.75-1.67,11.71,11.71,0,0,0-4.36,1.34c0-.37,0-.69,0-.94a1.59,1.59,0,0,1,.21-1,3.21,3.21,0,0,1,1-.66,27.55,27.55,0,0,0,2.48-1.27,13.94,13.94,0,0,0,1.8-1.63,5.6,5.6,0,0,0-.49.36l-4-.8a9.8,9.8,0,0,0-1.39.55,13.69,13.69,0,0,0-1.35.62,1.76,1.76,0,0,0-.31,1.18,23.34,23.34,0,0,0,.61,5.06c.22,1,.5,1.45.84,1.45s2.48-1.33,6-4q-3.63,7.29-7.1,7.3c-.71,0-1.29-.56-1.73-1.67a21.67,21.67,0,0,1-1-7.46q0-2.64.59-9.39c-.49,0-.9,0-1.24,0a2.2,2.2,0,0,1-1.9-.73,1.32,1.32,0,0,1-.33-.82.66.66,0,0,1,.09-.28,10.57,10.57,0,0,1,1.34-.35,35.38,35.38,0,0,0,5.13-2.14,3.3,3.3,0,0,0,.3-.73.33.33,0,0,0,0-.17c0-.23-.41-.72-1.24-1.46l-1.12-1.05a.71.71,0,0,0-.35-.07c-.58,0-1.38.69-2.39,2.07a29.57,29.57,0,0,1-6.63,6.58,9.59,9.59,0,0,1-5.55,2.07A16.55,16.55,0,0,1,1061,574.25Zm16.82-2.8a3.92,3.92,0,0,1,1,1.08,3.15,3.15,0,0,1,.28,1.48c0,.3,0,.73-.05,1.27,1.66-.73,2.48-1.4,2.48-2,0-.37-.46-.75-1.38-1.12q-1-1-1.5-1A1.86,1.86,0,0,0,1077.82,571.45Zm1.42-.66c.72,0,1.26,0,1.62,0q3.75,0,3.75,2a3.77,3.77,0,0,1-1.1,2c.64-.31,1-.58,1-.8.75-2.68,1.13-4.07,1.13-4.16a1,1,0,0,0-.64-.92,1.26,1.26,0,0,0-.61-.16,4.47,4.47,0,0,0-1.82.51C1081.62,569.65,1080.49,570.18,1079.24,570.79Z" transform="translate(-987.99 -549.03)"/></svg>