<svg id="圖層_1" data-name="圖層 1" xmlns="http://www.w3.org/2000/svg" viewBox="0 0 37 33.64"><defs><style>.cls-1{fill:#a6a6a6;}</style></defs><title>bj</title><path id="ic_thumb_up_24px" data-name="ic thumb up 24px" class="cls-1" d="M795,522.4h-6.73v20.18H795Zm-37,18.5a3.37,3.37,0,0,0,3.36,3.36H772l-1.6,7.69,0,.54a2.48,2.48,0,0,0,.74,1.78l1.78,1.77L783.93,545a3.3,3.3,0,0,0,1-2.37V525.76a3.38,3.38,0,0,0-3.36-3.36H766.42a3.35,3.35,0,0,0-3.09,2.05l-5.08,11.86a3.25,3.25,0,0,0-.24,1.23v3.21l0,0Z" transform="translate(-758.01 -522.4)"/></svg>