<svg id="圖層_1" data-name="圖層 1" xmlns="http://www.w3.org/2000/svg" viewBox="0 0 37 33.64"><defs><style>.cls-1{fill:#a6a6a6;}</style></defs><title>gj-1</title><path id="ic_thumb_up_24px" data-name="ic thumb up 24px" class="cls-1" d="M767,557h6.73V536.86H767Zm37-18.5a3.38,3.38,0,0,0-3.36-3.37H790l1.6-7.68,0-.54a2.48,2.48,0,0,0-.74-1.78l-1.78-1.77-11.07,11.08a3.31,3.31,0,0,0-1,2.37v16.82a3.38,3.38,0,0,0,3.37,3.37H795.6a3.38,3.38,0,0,0,3.1-2l5.08-11.86a3.44,3.44,0,0,0,.23-1.23v-3.21l0,0Z" transform="translate(-767.01 -523.4)"/></svg>