<svg xmlns="http://www.w3.org/2000/svg" width="125.247" height="130.465" viewBox="0 0 125.247 130.465">
  <g id="Group_630" data-name="Group 630" transform="translate(-806 -759.767)">
    <g id="Path_196" data-name="Path 196" transform="translate(806 759.767)" fill="none">
      <path d="M62.624,0c34.586,0,62.624,29.206,62.624,65.233S97.21,130.465,62.624,130.465,0,101.26,0,65.233,28.038,0,62.624,0Z" stroke="none"/>
      <path d="M 62.62353515625 9.000007629394531 C 33.05541229248047 9.000007629394531 8.999984741210938 34.22588348388672 8.999984741210938 65.23268127441406 C 8.999984741210938 96.23948669433594 33.05541229248047 121.4653549194336 62.62353515625 121.4653549194336 C 92.19163513183594 121.4653549194336 116.2470626831055 96.23948669433594 116.2470626831055 65.23268127441406 C 116.2470626831055 34.22588348388672 92.19163513183594 9.000007629394531 62.62353515625 9.000007629394531 M 62.62353515625 0 C 97.20956420898438 0 125.2470626831055 29.20568084716797 125.2470626831055 65.23268127441406 C 125.2470626831055 101.2596817016602 97.20956420898438 130.4653625488281 62.62353515625 130.4653625488281 C 28.03751373291016 130.4653625488281 -1.52587890625e-05 101.2596817016602 -1.52587890625e-05 65.23268127441406 C -1.52587890625e-05 29.20568084716797 28.03751373291016 0 62.62353515625 0 Z" stroke="none" fill="#cf5a5a"/>
    </g>
    <path id="check-solid" d="M22.25,112.99.96,91.7a3.276,3.276,0,0,1,0-4.632l4.632-4.632a3.275,3.275,0,0,1,4.632,0L24.566,96.777,55.286,66.058a3.276,3.276,0,0,1,4.632,0L64.55,70.69a3.276,3.276,0,0,1,0,4.632L26.882,112.99a3.275,3.275,0,0,1-4.632,0Z" transform="translate(843 735.902)" fill="#cf5a5a"/>
  </g>
</svg>
