<svg xmlns="http://www.w3.org/2000/svg" width="125.247" height="130.465" viewBox="0 0 125.247 130.465">
  <g id="Group_631" data-name="Group 631" transform="translate(0 -3.767)">
    <g id="Ellipse_24" data-name="Ellipse 24" transform="translate(0 3.767)" fill="none" stroke="#cf5a5a" stroke-width="9">
      <ellipse cx="62.624" cy="65.233" rx="62.624" ry="65.233" stroke="none"/>
      <ellipse cx="62.624" cy="65.233" rx="58.124" ry="60.733" fill="none"/>
    </g>
    <path id="chart-pie-solid" d="M70.915,38.7H39.032L60.266,59.935a2.156,2.156,0,0,0,2.982.091A32.18,32.18,0,0,0,73.073,41.1a2.154,2.154,0,0,0-2.158-2.4Zm-2.127-8.707A32.325,32.325,0,0,0,38.8.009a2.162,2.162,0,0,0-2.257,2.177V32.251H66.613A2.161,2.161,0,0,0,68.788,29.994ZM30.1,38.7V6.817a2.153,2.153,0,0,0-2.4-2.158A32.224,32.224,0,0,0,.017,37.676,32.646,32.646,0,0,0,32.653,68.8,32,32,0,0,0,50.828,62.88a2.135,2.135,0,0,0,.211-3.236Z" transform="translate(17.875 54.386) rotate(-30)" fill="#ac1515"/>
  </g>
</svg>
