<svg xmlns="http://www.w3.org/2000/svg" width="125.247" height="130.465" viewBox="0 0 125.247 130.465">
  <g id="time" transform="translate(26 28.233)">
    <g id="Group_632" data-name="Group 632" transform="translate(0 0)">
      <g id="Group_631" data-name="Group 631">
        <path id="Path_196" data-name="Path 196" d="M66.724,11.448A39.086,39.086,0,0,0,11.448,66.724,39.086,39.086,0,0,0,66.724,11.448ZM39.086,75.118A36.032,36.032,0,1,1,75.118,39.086,36.073,36.073,0,0,1,39.086,75.118Z" transform="translate(0 0)" fill="#ac1515"/>
      </g>
    </g>
    <g id="Group_634" data-name="Group 634" transform="translate(50.046 8.684)">
      <g id="Group_633" data-name="Group 633">
        <path id="Path_197" data-name="Path 197" d="M349.211,81.01A32.946,32.946,0,0,0,329.921,57a1.527,1.527,0,1,0-1.213,2.8,29.894,29.894,0,0,1,17.5,21.784,1.527,1.527,0,0,0,3-.577Z" transform="translate(-327.787 -56.875)" fill="#ac1515"/>
      </g>
    </g>
    <g id="Group_636" data-name="Group 636" transform="translate(44.286 6.828)">
      <g id="Group_635" data-name="Group 635">
        <path id="Path_198" data-name="Path 198" d="M291.949,44.765l-.04-.009a1.527,1.527,0,1,0-.643,2.985l.018,0a1.527,1.527,0,0,0,.665-2.98Z" transform="translate(-290.061 -44.721)" fill="#ac1515"/>
      </g>
    </g>
    <g id="Group_638" data-name="Group 638" transform="translate(6.674 43.537)">
      <g id="Group_637" data-name="Group 637">
        <path id="Path_199" data-name="Path 199" d="M64.59,308.325a29.846,29.846,0,0,1-17.849-21.931,1.527,1.527,0,0,0-3,.577,33.032,33.032,0,0,0,19.67,24.171,1.527,1.527,0,0,0,1.178-2.817Z" transform="translate(-43.714 -285.155)" fill="#ac1515"/>
      </g>
    </g>
    <g id="Group_640" data-name="Group 640" transform="translate(30.731 68.268)">
      <g id="Group_639" data-name="Group 639">
        <path id="Path_200" data-name="Path 200" d="M203.228,447.188l-.094-.021a1.527,1.527,0,1,0-.662,2.981l.107.024a1.527,1.527,0,1,0,.65-2.984Z" transform="translate(-201.276 -447.131)" fill="#ac1515"/>
      </g>
    </g>
    <g id="Group_642" data-name="Group 642" transform="translate(43.537 44.286)">
      <g id="Group_641" data-name="Group 641">
        <path id="Path_201" data-name="Path 201" d="M311.759,290.1a1.527,1.527,0,0,0-1.817,1.167,29.847,29.847,0,0,1-23.549,22.983,1.527,1.527,0,1,0,.577,3,33.016,33.016,0,0,0,25.956-25.331A1.527,1.527,0,0,0,311.759,290.1Z" transform="translate(-285.154 -290.061)" fill="#ac1515"/>
      </g>
    </g>
    <g id="Group_644" data-name="Group 644" transform="translate(6.828 6.674)">
      <g id="Group_643" data-name="Group 643">
        <path id="Path_202" data-name="Path 202" d="M72.5,44.953a1.526,1.526,0,0,0-1.788-1.211A33.016,33.016,0,0,0,44.756,69.074a1.527,1.527,0,1,0,2.984.65A29.847,29.847,0,0,1,71.289,46.741,1.527,1.527,0,0,0,72.5,44.953Z" transform="translate(-44.721 -43.715)" fill="#ac1515"/>
      </g>
    </g>
    <g id="Group_646" data-name="Group 646" transform="translate(33.895 33.895)">
      <g id="Group_645" data-name="Group 645">
        <path id="Path_203" data-name="Path 203" d="M227.191,222a5.191,5.191,0,1,0,5.191,5.191A5.2,5.2,0,0,0,227.191,222Zm0,7.329a2.138,2.138,0,1,1,2.138-2.138A2.14,2.14,0,0,1,227.191,229.329Z" transform="translate(-222 -222)" fill="#ac1515"/>
      </g>
    </g>
    <g id="Group_648" data-name="Group 648" transform="translate(37.582 6.107)">
      <g id="Group_647" data-name="Group 647">
        <path id="Path_204" data-name="Path 204" d="M247.679,40a1.527,1.527,0,0,0-1.527,1.527v3.421a1.527,1.527,0,1,0,3.054,0V41.527A1.527,1.527,0,0,0,247.679,40Z" transform="translate(-246.152 -40)" fill="#ac1515"/>
      </g>
    </g>
    <g id="Group_650" data-name="Group 650" transform="translate(37.536 64.502)">
      <g id="Group_649" data-name="Group 649">
        <path id="Path_205" data-name="Path 205" d="M247.375,422.464a1.527,1.527,0,0,0-1.527,1.527v4.51a1.527,1.527,0,0,0,3.054,0v-4.51A1.527,1.527,0,0,0,247.375,422.464Z" transform="translate(-245.848 -422.464)" fill="#ac1515"/>
      </g>
    </g>
    <g id="Group_652" data-name="Group 652" transform="translate(64.889 37.582)">
      <g id="Group_651" data-name="Group 651">
        <path id="Path_206" data-name="Path 206" d="M430.649,246.152h-4.122a1.527,1.527,0,1,0,0,3.054h4.122a1.527,1.527,0,0,0,0-3.054Z" transform="translate(-425 -246.152)" fill="#ac1515"/>
      </g>
    </g>
    <g id="Group_654" data-name="Group 654" transform="translate(6.107 37.536)">
      <g id="Group_653" data-name="Group 653">
        <path id="Path_207" data-name="Path 207" d="M45.954,245.848H41.527a1.527,1.527,0,0,0,0,3.054h4.428a1.527,1.527,0,0,0,0-3.054Z" transform="translate(-40 -245.848)" fill="#ac1515"/>
      </g>
    </g>
    <g id="Group_656" data-name="Group 656" transform="translate(26.922 37.559)">
      <g id="Group_655" data-name="Group 655">
        <path id="Path_208" data-name="Path 208" d="M184.832,246H177.86a1.527,1.527,0,0,0,0,3.054h6.972a1.527,1.527,0,0,0,0-3.054Z" transform="translate(-176.333 -246)" fill="#ac1515"/>
      </g>
    </g>
    <g id="Group_658" data-name="Group 658" transform="translate(37.559 19.594)">
      <g id="Group_657" data-name="Group 657">
        <path id="Path_209" data-name="Path 209" d="M247.527,128.333A1.527,1.527,0,0,0,246,129.86v14.3a1.527,1.527,0,0,0,3.054,0v-14.3A1.527,1.527,0,0,0,247.527,128.333Z" transform="translate(-246 -128.333)" fill="#ac1515"/>
      </g>
    </g>
  </g>
  <g id="Ellipse_24" data-name="Ellipse 24" fill="none" stroke="#cf5a5a" stroke-width="9">
    <ellipse cx="62.624" cy="65.233" rx="62.624" ry="65.233" stroke="none"/>
    <ellipse cx="62.624" cy="65.233" rx="58.124" ry="60.733" fill="none"/>
  </g>
</svg>

