<svg xmlns="http://www.w3.org/2000/svg" viewBox="0 0 180.98 293.15"><defs><style>.cls-1{fill:#ac1515;}.cls-2,.cls-4{fill:none;stroke:#707070;}.cls-2{stroke-width:3px;}.cls-3{fill:#707070;}</style></defs><title>資產 5</title><g id="圖層_2" data-name="圖層 2"><g id="圖層_1-2" data-name="圖層 1"><g id="Group_335" data-name="Group 335"><g id="Group_334" data-name="Group 334"><path id="Exclusion_8" data-name="Exclusion 8" class="cls-1" d="M90.53,293.15A90.39,90.39,0,1,1,125.79,286,90.59,90.59,0,0,1,90.53,293.15Zm0-162.07A11.92,11.92,0,1,0,102.45,143,11.92,11.92,0,0,0,90.53,131.08Z"/></g><path id="Path_91" data-name="Path 91" class="cls-2" d="M91.63,131.14c.55-66.56,9.1-78.71,24.89-98.49A116.11,116.11,0,0,1,129.79,18c2.69-2.43,5.49-4.74,8.82-7.22,11.58-8.62,23-12.58,22,.23-.65,8.55,7.23,16.78-5.83,33.77C83.76,137.1,91.63,131.14,91.63,131.14Z"/></g><g id="Ellipse_27" data-name="Ellipse 27"><circle class="cls-3" cx="151.31" cy="17.88" r="17.88"/><circle class="cls-4" cx="151.31" cy="17.88" r="16.68"/></g></g></g></svg>