<svg xmlns="http://www.w3.org/2000/svg" xmlns:xlink="http://www.w3.org/1999/xlink" viewBox="0 0 68.15 78.43"><defs><style>.cls-1,.cls-3,.cls-6{fill:#fff;}.cls-1,.cls-2{stroke:#000;}.cls-1,.cls-2,.cls-6{stroke-miterlimit:10;stroke-width:0.25px;}.cls-2{fill:none;}.cls-4{fill:#d87fb1;}.cls-5{fill:#eec485;}.cls-6{stroke:#732700;}.cls-7{fill:#edddc8;}.cls-8{fill:#a4484b;}.cls-9{fill:#fe7877;}</style></defs><title>sorry3</title><g id="圖層_2" data-name="圖層 2"><g id="圖層_2-2" data-name="圖層 2"><path class="cls-1" d="M36.11,14.75s-5.95,2.73-6-3.5c0,0-1-8.24,3.15-8.24,0,0,10.35-5.41,11.94-1.41,0,0,7.76,1.41,7,4,1.26-1,7.06,4.53,1.23,6.9,0,0-.22,5.23-3.87,4.52"/><path class="cls-2" d="M35.73,12.27c.2.15-.07.47,1.49.37"/><path class="cls-2" d="M50.22,14.75s.21-.48.62-.53"/><path class="cls-2" d="M49.55,13.42s.45-.88.67-.92"/><path class="cls-2" d="M48.81,13s-.37-.48-.5-.49"/><path class="cls-1" d="M35.34,17.36l1.38-4.68s9.79-1.1,13.5,2.07l-1.5,4.93S38.63,17.19,35.34,17.36Z"/><line class="cls-2" x1="45.66" y1="15.93" x2="44.95" y2="17.69"/><line class="cls-2" x1="47.52" y1="16.09" x2="46.67" y2="18.36"/><line class="cls-2" x1="48.81" y1="16.36" x2="47.82" y2="18.89"/><path d="M16.75,42.07S17.93,20,35.34,17.36c0,0,14.35-2,21.41,9.77,0,0,2.35,2.7,1.53,18.35,0,0,.94.82,5.18-2.71,0,0,2.94-1.64,2.23,1.77,0,0-1.76,2.94-6.94,4.82,0,0-1.65,7.41-.47,9.3s4.47,9.41,4.82,12.47-9.17,6-9.17,6S26.87,81,9.1,75.36c0,0-4.58-1.06,2.47-15.76,0,0,4.12-8,4.36-13.3,0,0-4.47-1.29-7.53-6.94,0,0-.83-3.53,2.59-1.29C11,38.07,14.75,42.77,16.75,42.07Z"/><path class="cls-3" d="M26.52,25.13S31.69,20.19,42.16,23c0,0,8.83.94,10,11.29,0,0,.47,15.18-8.82,18.71,0,0-13.18,4.12-19.88-3.41C23.46,49.6,16.16,37.36,26.52,25.13Z"/><ellipse cx="42.93" cy="33.72" rx="1.06" ry="2.18" transform="translate(0.71 68.31) rotate(-77.48)"/><ellipse cx="29.63" cy="32.58" rx="2.18" ry="1.06" transform="translate(-1.51 1.44) rotate(-2.71)"/><path class="cls-4" d="M42.28,31a10.59,10.59,0,0,1,3.53-3.88c2.25-1.34-.12,4.23,0,4.59S42.28,31,42.28,31Z"/><path class="cls-4" d="M32.05,25.13s-2.59,2.8-2.83,4.22c0,0,2.85.19,3.16.5S32.05,25.13,32.05,25.13Z"/><path class="cls-4" d="M39.88,37.26s2.21.88,3,1.1-3.27,3.27-3.49,3.84S39.88,37.26,39.88,37.26Z"/><path class="cls-4" d="M26.69,36.16a11.21,11.21,0,0,1,2.94,0c1.52.22-1.88,3.86-1.92,4.73S26.69,36.16,26.69,36.16Z"/><path d="M30.35,45.6a16.85,16.85,0,0,0,5.06,0c1.88-.47-.47,1.47-1.88,2.06s-3.83-.41-3.47-1.53S30.35,45.6,30.35,45.6Z"/><path class="cls-5" d="M12.67,28.21c-.13.13,1.05,10.69-5.66,10.16,0,0-5.41.3-6.41-2.82a18.06,18.06,0,0,1-.45-6.94"/><path class="cls-6" d="M1.07,27.67s9.88-.71,11.41,0-3.35,2.06-3.35,2.06-5.84.64-8.06-.3C-1,28.58,1.07,27.67,1.07,27.67Z"/><image width="192" height="192" transform="translate(2.91 30.83) scale(0.03)" xlink:href="../../myREACT/myapp/public/images/logo192.png"/><path class="cls-2" d="M12.34,17s.45,2.42-.86,3.3c-1.49,1,.66,2.51,2.25,3S12.06,26,11.48,26.39"/><path class="cls-2" d="M7.41,15.75s.44,2.43-.86,3.3c-1.49,1,.66,2.52,2.24,3s-1.66,2.7-2.24,3.09"/><path class="cls-2" d="M2.69,17s.44,2.42-.87,3.3c-1.48,1,.66,2.51,2.25,3S2.41,26,1.82,26.39"/><path class="cls-7" d="M2.41,29.64s1.84-1.56,7.86-.38C10.27,29.26,8.18,30.22,2.41,29.64Z"/><path class="cls-1" d="M62.93,35s-1.94-1-1.7-4.07a3.57,3.57,0,0,1,3.23-3.34s1.77-.41,3.18,2.53A3.49,3.49,0,0,1,65.4,35c-.82.12.42,9.65.42,9.65s.48,2.35-1.2,2.23-1.1-4.52-1.1-4.52.85-6.62.65-6.92A8.76,8.76,0,0,1,62.93,35Z"/><path class="cls-8" d="M22.63,59.28c0-.47.05-3.59,4.7-1.18a28.35,28.35,0,0,0,11.94.53C44.42,57.51,43.8,63,43.8,63a6.16,6.16,0,0,1-4.23,3.47S29.21,69.57,23.1,62.69A10.87,10.87,0,0,1,22.63,59.28Z"/><polygon class="cls-3" points="29.58 58.62 29.58 61.2 32.23 61.2 32.23 58.94 29.58 58.62"/><rect class="cls-3" x="32.99" y="58.98" width="3.47" height="3.12"/><path class="cls-9" d="M25.51,66s1.45-5.07,6.17-2c0,0,5.47-2.43,7.41,1.8,0,0,.31,2.45-.22,3.49,0,0-2,4.19-6.52,4.06,0,0-5.39,0-6.84-3.93A6.19,6.19,0,0,1,25.51,66Z"/><path class="cls-3" d="M31.68,64s-1.81,1.19-1.59,2.55c0,0,1.23-2.53,2.64-2.91Z"/></g></g></svg>