<svg xmlns="http://www.w3.org/2000/svg" width="125.247" height="130.465" viewBox="0 0 125.247 130.465">
  <g id="cookbook" transform="translate(67.483 -195.96) rotate(22)">
    <g id="Group_347" data-name="Group 347" transform="translate(68.001 208.821)">
      <path id="Path_134" data-name="Path 134" d="M113.934,57.354a1.338,1.338,0,0,0,.062-.431V1.389A1.388,1.388,0,0,0,112.608,0H69.554A5.561,5.561,0,0,0,64,5.555V61.108a5.561,5.561,0,0,0,5.555,5.555h43.054a1.389,1.389,0,0,0,1.156-2.159,6.107,6.107,0,0,1-.009-6.779A1.355,1.355,0,0,0,113.934,57.354ZM76.966,21.685a1.389,1.389,0,0,1,2.4,1.063l-.052.431a3.2,3.2,0,0,0-.042.43,1.389,1.389,0,1,0,2.778,0A6.952,6.952,0,0,1,89,16.666a6.866,6.866,0,0,1,5.634,2.911,6.923,6.923,0,0,1,5.477,12.338v2.806A1.388,1.388,0,0,1,98.72,36.11H79.276a1.388,1.388,0,0,1-1.389-1.389V31.915a6.885,6.885,0,0,1-.921-10.229Zm23.142,18.59a4.171,4.171,0,0,1-4.166,4.166H82.054a4.171,4.171,0,0,1-4.166-4.166,1.388,1.388,0,0,1,1.389-1.389H98.72A1.388,1.388,0,0,1,100.108,40.276ZM110.4,63.886H69.554a2.778,2.778,0,0,1,0-5.555H110.4A8.862,8.862,0,0,0,110.4,63.886Z" transform="translate(-63.999)" fill="#d67e7e"/>
    </g>
  </g>
  <g id="Ellipse_24" data-name="Ellipse 24" fill="none" stroke="#cf5a5a" stroke-width="9">
    <ellipse cx="62.624" cy="65.233" rx="62.624" ry="65.233" stroke="none"/>
    <ellipse cx="62.624" cy="65.233" rx="58.124" ry="60.733" fill="none"/>
  </g>
</svg>
