<svg xmlns="http://www.w3.org/2000/svg" width="125.247" height="130.465" viewBox="0 0 125.247 130.465">
  <g id="chef-svgrepo-com" transform="translate(20.354 -270.992)">
    <g id="Group_348" data-name="Group 348" transform="translate(12 311.789)">
      <path id="Path_135" data-name="Path 135" d="M47.471,52.268a12.04,12.04,0,0,0-6.29,1.75,12.181,12.181,0,0,0-22.717,0,12.038,12.038,0,0,0-6.29-1.75,12.174,12.174,0,0,0-1.223,24.286v2.972a1.021,1.021,0,1,0,2.041,0V75.592a1.021,1.021,0,0,0-1-1.021,10.132,10.132,0,1,1,6.4-18.128,1.021,1.021,0,0,0,1.616-.552,10.136,10.136,0,0,1,19.634,0,1.021,1.021,0,0,0,1.616.552A10.031,10.031,0,0,1,47.47,54.31a10.131,10.131,0,0,1,.184,20.261,1.021,1.021,0,0,0-1,1.021V85.73H43.3a1.021,1.021,0,1,0,0,2.041h3.356v5.3H12.993v-5.3h26.9a1.021,1.021,0,1,0,0-2.041h-26.9v-2.8a1.021,1.021,0,1,0-2.041,0v11.16a1.021,1.021,0,0,0,1.021,1.021h35.7a1.021,1.021,0,0,0,1.021-1.021V76.554a12.174,12.174,0,0,0-1.223-24.286Z" transform="translate(0 -46.237)" fill="#d67e7e"/>
      <path id="Path_136" data-name="Path 136" d="M48.735,52.429a12.36,12.36,0,0,0-6.457,1.8,12.505,12.505,0,0,0-23.322,0,12.359,12.359,0,0,0-6.457-1.8,12.5,12.5,0,0,0-1.255,24.932v3.052a1.048,1.048,0,1,0,2.1,0V76.374a1.048,1.048,0,0,0-1.029-1.048,10.4,10.4,0,1,1,6.57-18.611,1.048,1.048,0,0,0,1.659-.567,10.406,10.406,0,0,1,20.157,0,1.048,1.048,0,0,0,1.659.567,10.3,10.3,0,0,1,6.381-2.19,10.4,10.4,0,0,1,.189,20.8,1.048,1.048,0,0,0-1.029,1.048V86.782H44.449a1.048,1.048,0,1,0,0,2.1h3.446v5.438H13.339V88.878H40.956a1.048,1.048,0,1,0,0-2.1H13.339V83.906a1.048,1.048,0,1,0-2.1,0V95.364a1.048,1.048,0,0,0,1.048,1.048H48.943a1.048,1.048,0,0,0,1.048-1.048v-18a12.5,12.5,0,0,0-1.256-24.933Z" transform="translate(-0.589 -47.237)" fill="#d67e7e"/>
    </g>
  </g>
  <g id="Ellipse_24" data-name="Ellipse 24" fill="none" stroke="#cf5a5a" stroke-width="9">
    <ellipse cx="62.624" cy="65.233" rx="62.624" ry="65.233" stroke="none"/>
    <ellipse cx="62.624" cy="65.233" rx="58.124" ry="60.733" fill="none"/>
  </g>
</svg>

