<svg xmlns="http://www.w3.org/2000/svg" width="24.461" height="27.956" viewBox="0 0 24.461 27.956">
  <path id="trash-alt-solid" d="M1.747,25.335a2.621,2.621,0,0,0,2.621,2.621H20.093a2.621,2.621,0,0,0,2.621-2.621V6.989H1.747ZM16.6,11.357a.874.874,0,1,1,1.747,0V23.587a.874.874,0,0,1-1.747,0Zm-5.242,0a.874.874,0,1,1,1.747,0V23.587a.874.874,0,0,1-1.747,0Zm-5.242,0a.874.874,0,1,1,1.747,0V23.587a.874.874,0,0,1-1.747,0Zm17.472-9.61H17.036L16.522.726A1.31,1.31,0,0,0,15.348,0H9.107A1.3,1.3,0,0,0,7.939.726L7.426,1.747H.874A.874.874,0,0,0,0,2.621V4.368a.874.874,0,0,0,.874.874H23.588a.874.874,0,0,0,.874-.874V2.621A.874.874,0,0,0,23.588,1.747Z" transform="translate(0 0)"/>
</svg>