<svg xmlns="http://www.w3.org/2000/svg" width="125.247" height="130.465" viewBox="0 0 125.247 130.465">
  <g id="Ellipse_24" data-name="Ellipse 24" fill="none" stroke="#cf5a5a" stroke-width="9">
    <ellipse cx="62.624" cy="65.233" rx="62.624" ry="65.233" stroke="none"/>
    <ellipse cx="62.624" cy="65.233" rx="58.124" ry="60.733" fill="none"/>
  </g>
  <g id="chat" transform="translate(25.645 31.233)">
    <path id="Path_182" data-name="Path 182" d="M48.783,192.022H10.542a5.193,5.193,0,0,0-5.187,5.187V218.2a5.193,5.193,0,0,0,5.187,5.187H12.93l-.813,3.2a1.027,1.027,0,0,0,1.428,1.185l9.447-4.381H48.783A5.193,5.193,0,0,0,53.97,218.2V197.209A5.192,5.192,0,0,0,48.783,192.022ZM51.916,218.2a3.136,3.136,0,0,1-3.133,3.133H22.764a1.028,1.028,0,0,0-.432.1l-7.692,3.567.606-2.382a1.027,1.027,0,0,0-1-1.28H10.542A3.136,3.136,0,0,1,7.409,218.2V197.209a3.136,3.136,0,0,1,3.133-3.133H48.783a3.136,3.136,0,0,1,3.133,3.133Z" transform="translate(0 -165.726)" fill="#cf5a5a"/>
    <path id="Path_183" data-name="Path 183" d="M88.523,236.022H55.382a1.027,1.027,0,1,0,0,2.054h33.14a1.027,1.027,0,1,0,0-2.054Z" transform="translate(-42.29 -203.7)" fill="#cf5a5a"/>
    <path id="Path_184" data-name="Path 184" d="M88.523,277.355H55.382a1.027,1.027,0,1,0,0,2.054h33.14a1.027,1.027,0,1,0,0-2.054Z" transform="translate(-42.29 -239.373)" fill="#cf5a5a"/>
    <path id="Path_185" data-name="Path 185" d="M88.523,318.688H55.382a1.027,1.027,0,1,0,0,2.054h33.14a1.027,1.027,0,1,0,0-2.054Z" transform="translate(-42.29 -275.046)" fill="#cf5a5a"/>
    <path id="Path_186" data-name="Path 186" d="M88.523,360.022H55.382a1.027,1.027,0,0,0,0,2.054h33.14a1.027,1.027,0,1,0,0-2.054Z" transform="translate(-42.29 -310.719)" fill="#cf5a5a"/>
    <path id="Path_187" data-name="Path 187" d="M269.047,0H251.792a5.193,5.193,0,0,0-5.187,5.187V17.5a5.193,5.193,0,0,0,5.187,5.187H256.2l8.25,3.826a1.027,1.027,0,0,0,1.459-.917l.043-2.91h3.1a5.193,5.193,0,0,0,5.187-5.187V5.187A5.192,5.192,0,0,0,269.047,0Zm3.133,17.5a3.136,3.136,0,0,1-3.133,3.133h-4.108a1.027,1.027,0,0,0-1.027,1.012l-.035,2.339-7.02-3.256a1.028,1.028,0,0,0-.432-.1h-4.633a3.136,3.136,0,0,1-3.133-3.133V5.187a3.136,3.136,0,0,1,3.133-3.133h17.255a3.136,3.136,0,0,1,3.133,3.133V17.5Z" transform="translate(-208.212)" fill="#cf5a5a"/>
    <path id="Path_188" data-name="Path 188" d="M319.391,32.577a4.462,4.462,0,0,0-4.457,4.457,1.027,1.027,0,1,0,2.054,0,2.4,2.4,0,1,1,3.673,2.04,4.831,4.831,0,0,0-2.446,4.347,1.027,1.027,0,0,0,1.026.993h.034a1.027,1.027,0,0,0,.993-1.06,2.783,2.783,0,0,1,1.424-2.5l.044-.026a4.457,4.457,0,0,0-2.345-8.248Z" transform="translate(-267.184 -28.116)" fill="#cf5a5a"/>
    <path id="Path_189" data-name="Path 189" d="M339.954,126.5a1.026,1.026,0,1,0,.726.3A1.039,1.039,0,0,0,339.954,126.5Z" transform="translate(-287.891 -109.18)" fill="#cf5a5a"/>
  </g>
</svg>
