<svg xmlns="http://www.w3.org/2000/svg" width="156" height="156" viewBox="0 0 156 156">
    <path id="tags-solid"
        d="M82.741,37.544,47.533,2.336A7.976,7.976,0,0,0,41.893,0H7.976A7.976,7.976,0,0,0,0,7.976V41.893a7.976,7.976,0,0,0,2.336,5.64L37.544,82.741a7.976,7.976,0,0,0,11.28,0L82.741,48.823a7.976,7.976,0,0,0,0-11.28ZM18.611,26.587a7.976,7.976,0,1,1,7.976-7.976A7.976,7.976,0,0,1,18.611,26.587Zm85.4,22.237L70.093,82.741a7.976,7.976,0,0,1-11.28,0l-.06-.06L87.676,53.758a14.955,14.955,0,0,0,0-21.15L55.067,0h8.1A7.976,7.976,0,0,1,68.8,2.336L104.01,37.544a7.976,7.976,0,0,1,0,11.28Z"
        transform="translate(28.827 40)" fill="#133072" />
    <g id="Ellipse_21" data-name="Ellipse 21" fill="none" stroke="#133072" stroke-width="9">
        <circle cx="78" cy="78" r="78" stroke="none" />
        <circle cx="78" cy="78" r="73.5" fill="none" />
    </g>
</svg>