<svg xmlns="http://www.w3.org/2000/svg" width="31.174" height="27.705" viewBox="0 0 31.174 27.705">
  <path id="edit-solid" d="M21.789,4.6l4.882,4.882a.529.529,0,0,1,0,.747l-11.82,11.82L9.828,22.6A1.053,1.053,0,0,1,8.665,21.44l.557-5.022L21.042,4.6a.529.529,0,0,1,.747,0Zm8.768-1.239L27.916.717a2.117,2.117,0,0,0-2.987,0L23.012,2.633a.529.529,0,0,0,0,.747l4.882,4.882a.529.529,0,0,0,.747,0l1.916-1.916a2.117,2.117,0,0,0,0-2.987ZM20.783,18.831v5.51H3.464V7.022H15.9a.665.665,0,0,0,.46-.189l2.165-2.165a.649.649,0,0,0-.46-1.109H2.6A2.6,2.6,0,0,0,0,6.156V25.207a2.6,2.6,0,0,0,2.6,2.6H21.649a2.6,2.6,0,0,0,2.6-2.6v-8.54a.651.651,0,0,0-1.109-.46l-2.165,2.165A.665.665,0,0,0,20.783,18.831Z" transform="translate(0 -0.1)"/>
</svg>
