<svg xmlns="http://www.w3.org/2000/svg" width="125.247" height="130.465" viewBox="0 0 125.247 130.465">
  <path id="leaf-solid" d="M65.842,1.148A1.874,1.874,0,0,0,62.433,1a20.656,20.656,0,0,1-18.057,10.54H34.74A23.134,23.134,0,0,0,11.612,34.671a23.818,23.818,0,0,0,.181,2.469c7.685-5.5,18.779-10.179,34.511-10.179a1.927,1.927,0,0,1,0,3.855C16.021,30.816,3.18,49.379.337,56.353A3.86,3.86,0,0,0,7.48,59.28a31.691,31.691,0,0,1,8.661-10.913,23.077,23.077,0,0,0,21.068,9.3c18.912-1.373,32.222-18.334,32.222-39.1a43.8,43.8,0,0,0-3.59-17.418Z" transform="translate(25.568 32.845)" fill="#d67e7e"/>
  <g id="Path_196" data-name="Path 196" fill="none">
    <path d="M62.624,0c34.586,0,62.624,29.206,62.624,65.233,0,1.429-.044,2.847-.149,4.528a66.644,66.644,0,0,1-11.222,32.964,61.763,61.763,0,0,1-51.253,27.741C28.038,130.465,0,101.26,0,65.233S28.038,0,62.624,0Z" stroke="none"/>
    <path d="M 62.62353515625 9.000007629394531 C 33.05541229248047 9.000007629394531 8.999984741210938 34.22588348388672 8.999984741210938 65.23268127441406 C 8.999984741210938 96.23948669433594 33.05541229248047 121.4653549194336 62.62353515625 121.4653549194336 C 80.06728363037109 121.4653549194336 96.43263244628906 112.5863342285156 106.4010848999023 97.71357727050781 C 112.1319351196289 89.1641845703125 115.4911575317383 79.30607604980469 116.1157836914063 69.20170593261719 C 116.2074356079102 67.72802734375 116.2470626831055 66.48506164550781 116.2470626831055 65.23268127441406 C 116.2470626831055 34.22588348388672 92.19163513183594 9.000007629394531 62.62353515625 9.000007629394531 M 62.62353515625 0 C 97.20956420898438 0 125.2470626831055 29.20568084716797 125.2470626831055 65.23268127441406 C 125.2470626831055 66.66133117675781 125.2029876708984 68.07925415039063 125.0984344482422 69.76036071777344 C 124.358512878418 81.72978210449219 120.3481597900391 93.07083129882813 113.8769073486328 102.7247772216797 C 102.6876068115234 119.4189834594727 83.89398193359375 130.4653625488281 62.62353515625 130.4653625488281 C 28.03751373291016 130.4653625488281 -1.52587890625e-05 101.2596817016602 -1.52587890625e-05 65.23268127441406 C -1.52587890625e-05 29.20568084716797 28.03751373291016 0 62.62353515625 0 Z" stroke="none" fill="#cf5a5a"/>
  </g>
</svg>