<svg xmlns="http://www.w3.org/2000/svg" width="156" height="156" viewBox="0 0 156 156">
    <g id="Ellipse_24" data-name="Ellipse 24" fill="none" stroke="#cf5a5a" stroke-width="9">
        <circle cx="78" cy="78" r="78" stroke="none" />
        <circle cx="78" cy="78" r="73.5" fill="none" />
    </g>
    <path id="unlock-alt-solid"
        d="M67.934,43.477H25.815V25.967a12.229,12.229,0,1,1,24.456-.153v2.717a4.066,4.066,0,0,0,4.076,4.076h5.435a4.066,4.066,0,0,0,4.076-4.076V25.814a25.815,25.815,0,1,0-51.63.255V43.477H8.152A8.154,8.154,0,0,0,0,51.629V78.8a8.154,8.154,0,0,0,8.152,8.152H67.934A8.154,8.154,0,0,0,76.086,78.8V51.629A8.154,8.154,0,0,0,67.934,43.477Zm-23.1,25.815a6.793,6.793,0,0,1-13.587,0V61.139a6.793,6.793,0,0,1,13.587,0Z"
        transform="translate(40 30.001)" fill="#cf5a5a" />
</svg>