<svg xmlns="http://www.w3.org/2000/svg" width="154.263" height="154.263" viewBox="0 0 154.263 154.263">
  <g id="l5tQUGu-shopping-cart-white-vector" transform="translate(28.567 31.832)">
    <g id="layer1" transform="translate(0 0)">
      <path id="path3847" d="M330.857,41.89a3.118,3.118,0,0,0-.5.046h-.009l-16.5,2.818a3.045,3.045,0,0,0-2.317,1.891s0,.006,0,.009l-7.656,19.632-74.717,1.863a3.058,3.058,0,0,0-2.948,3.42l4.125,34.119a3.069,3.069,0,0,0,2.79,2.679l53.269,4.236,10.557,8.3.037.028c.011.008.025.011.037.019s.024.019.037.028a4.685,4.685,0,0,1,2.132,4.486,2.1,2.1,0,0,1-.955,1.427,5.5,5.5,0,0,1-3.2.51h-.019c-.053,0-.113,0-.167,0h-.028l-63.53.185h-.009a3.05,3.05,0,1,0,.019,6.1h.009l4.644-.009a6.17,6.17,0,1,0,6.581-.028l52.314-.148a6.167,6.167,0,1,0,4.319-.658,9.925,9.925,0,0,0,5.9-5.775.751.751,0,0,0,.046-.111c.958-3.831-.741-8-4.245-10.706l-.028-.028c-.009-.007-.01-.021-.018-.028a.745.745,0,0,0-.1-.1l-7.48-5.867,23.33-59.757,14.8-2.521h.009a3.05,3.05,0,0,0-.528-6.062h0Zm-29.234,29.1-4.3,11.03h-5.608V71.245l9.908-.25Zm-12.05.306V82.025H279.219V71.56Zm-12.495.306V82.025H266.725V71.866Zm-12.495.315v10.1H254.23V72.181Zm-12.495.315v9.788H241.736V72.5Zm-12.495.306v9.482H232l-1.122-9.26Zm-7.332,11.614h7.332v9.686h-6.164Zm9.473,0h10.353v9.686H241.736Zm12.495,0h10.353v9.686H254.23Zm12.495,0h10.353v9.686H266.725Zm12.495,0h10.353v9.686H279.219Zm12.495,0H296.5l-3.782,9.686h-1ZM233.69,95.975h5.9v6.952l-5.116-.408Zm8.045,0h10.353v7.943l-10.353-.825V95.975Zm12.495,0h10.353v8.935l-10.353-.816Zm12.495,0h10.353v9.936l-10.353-.825V95.975Zm12.495,0h10.353v5.9l-1.965,5.033a2.305,2.305,0,0,0-.816-.222l-7.573-.6v-10.1Zm12.495,0h.158l-.158.436Zm-52.453,39.282a3.629,3.629,0,1,1-3.633,3.633A3.616,3.616,0,0,1,239.261,135.256Zm58.608,0a3.629,3.629,0,1,1-3.633,3.633A3.616,3.616,0,0,1,297.868,135.256Zm-58.608,1.724a1.97,1.97,0,1,0,1.974,1.974A1.965,1.965,0,0,0,239.261,136.98Zm58.608,0a1.97,1.97,0,1,0,1.974,1.974A1.965,1.965,0,0,0,297.868,136.98Z" transform="translate(-226.188 -41.89)" fill="#cf5a5a"/>
    </g>
  </g>
  <g id="Path_114" data-name="Path 114" fill="none" stroke-linecap="round">
    <path d="M77.132,0A77.132,77.132,0,1,1,0,77.132,77.132,77.132,0,0,1,77.132,0Z" stroke="none"/>
    <path d="M 77.131591796875 8.000015258789063 C 39.01231384277344 8.000015258789063 8.000015258789063 39.01231384277344 8.000015258789063 77.131591796875 C 8.000015258789063 115.2508697509766 39.01231384277344 146.2631683349609 77.131591796875 146.2631683349609 C 115.2508697509766 146.2631683349609 146.2631683349609 115.2508697509766 146.2631683349609 77.131591796875 C 146.2631683349609 39.01231384277344 115.2508697509766 8.000015258789063 77.131591796875 8.000015258789063 M 77.131591796875 1.52587890625e-05 C 119.7301788330078 1.52587890625e-05 154.2631683349609 34.53298187255859 154.2631683349609 77.131591796875 C 154.2631683349609 119.7301788330078 119.7301788330078 154.2631683349609 77.131591796875 154.2631683349609 C 34.53298187255859 154.2631683349609 1.52587890625e-05 119.7301788330078 1.52587890625e-05 77.131591796875 C 1.52587890625e-05 34.53298187255859 34.53298187255859 1.52587890625e-05 77.131591796875 1.52587890625e-05 Z" stroke="none" fill="#cf5a5a"/>
  </g>
</svg>
