<svg id="圖層_1" data-name="圖層 1" xmlns="http://www.w3.org/2000/svg" viewBox="0 0 393.18 393.18"><defs><style>.cls-1{fill:#133072;}</style></defs><title>未命名-4</title><g id="Group_1" data-name="Group 1"><path id="Path_1" data-name="Path 1" class="cls-1" d="M945,397s-67,35.74-35.74,89.35c0,0,0-26.8,4.47-35.74s4.46,26.81,4.46,40.21c0,0,22.35-4.47,26.81-26.8S945,397,945,397Z" transform="translate(-764.01 -343.4)"/></g><g id="Group_2" data-name="Group 2"><path id="Path_2" data-name="Path 2" class="cls-1" d="M990.59,408.19s-43.32,20.42-23.11,51.06c0,0,0-15.32,2.89-20.43s2.89,15.32,2.89,23c0,0,14.44-2.55,17.33-15.32S990.59,408.19,990.59,408.19Z" transform="translate(-764.01 -343.4)"/></g><g id="Group_3" data-name="Group 3"><path id="Path_3" data-name="Path 3" class="cls-1" d="M1049.54,416.13s-47.88.84-42,37.07c0,0,6.29-14,11-17.43s-3.66,15.15-6.8,22.13c0,0,14.22,3.6,22.09-6.85S1049.54,416.13,1049.54,416.13Z" transform="translate(-764.01 -343.4)"/></g><g id="Group_4" data-name="Group 4"><path id="Path_4" data-name="Path 4" class="cls-1" d="M1052.7,465.49s-68.08-3.79-56.08,41.9c0,0,7.54-16.75,13.93-20.59s-3.68,18.49-7.45,26.87c0,0,20.6,5.92,30.75-6.3S1052.7,465.49,1052.7,465.49Z" transform="translate(-764.01 -343.4)"/></g><g id="Group_5" data-name="Group 5"><path id="Path_5" data-name="Path 5" class="cls-1" d="M971.65,479.65s-80,35.8-43.5,91.34c0,0,.32-27.55,5.73-36.68s5,27.61,4.82,41.39c0,0,26.57-4.28,32.14-27.18S971.65,479.65,971.65,479.65Z" transform="translate(-764.01 -343.4)"/></g><g id="Group_6" data-name="Group 6"><path id="Path_6" data-name="Path 6" class="cls-1" d="M854.37,475.14s66,29.89,35.9,76.23c0,0-.27-23-4.73-30.6s-4.11,23-4,34.53c0,0-21.92-3.58-26.51-22.68S854.37,475.14,854.37,475.14Z" transform="translate(-764.01 -343.4)"/></g><g id="Group_7" data-name="Group 7"><path id="Path_7" data-name="Path 7" class="cls-1" d="M863.51,421s37.37,16.93,20.33,43.16c0,0-.15-13-2.68-17.33s-2.33,13.05-2.25,19.56c0,0-12.41-2-15-12.84S863.51,421,863.51,421Z" transform="translate(-764.01 -343.4)"/></g><g id="Group_8" data-name="Group 8"><path id="Path_8" data-name="Path 8" class="cls-1" d="M960.6,343.4C852,343.4,764,431.42,764,540c0,5.16.26,10.25.65,15.3h0l.09.68a196.47,196.47,0,0,0,3.21,23.17l0,.14h0c1.17,5.77,2.63,11.44,4.3,17h0c.73,8.46,6.69,18.84,6.69,18.84h0a196.11,196.11,0,0,0,10,20.68h0l.1.12a197.62,197.62,0,0,0,11.32,17.86l0,.1h0A196.28,196.28,0,0,0,960.6,736.58c108.57,0,196.59-88,196.59-196.59S1069.17,343.4,960.6,343.4ZM826.23,650.93c43.91,3.42,80.75,46.23,80.75,38.74,0-8.94,4.47-17.88,4.47-17.88-44-33.62-78.05-40.35-99-40.06a175.31,175.31,0,0,1-10.4-19.45c27.45-1.32,74,3.24,109.39,41.64,4.47-4.46,8.94-17.87,8.94-17.87s-49.47-43.72-125.34-41.68A171.2,171.2,0,0,1,790.33,577c102.33-6.71,134.53,45.64,134.53,45.64s4.46-8.94,4.46-17.87c-44.41-44.41-108.75-50.7-142.35-50.6-.37-4.69-.62-9.4-.62-14.19A174.25,174.25,0,0,1,960.6,365.74h0c84.83,0,155.46,60.63,171,140.91-49.44-2-183.79,10.81-211,202.93A174.18,174.18,0,0,1,826.23,650.93Zm171.12,59.39c-6.34-53.74,45.91-95.12,45.91-95.12,44.67,17.64,58.08-26.46,58.08-26.46l-8.94-4.41c-22.34,35.28-35.74,17.64-35.74,17.64l31.27-22.05V571.1s-35.74,17.64-40.21,22c-4.46-26.47,35.75-26.47,35.75-26.47v-8.82h-8.94c-49.15,4.41-40.21,39.7-40.21,44.11-55.23,45.43-59.89,88.78-57.39,111.48-5.38.5-10.82.79-16.33.79-4.7,0-9.33-.24-13.92-.6,2.78-47.49,20.05-183.29,186.31-190.39h1c.53,5.5.82,11.08.82,16.73A174.28,174.28,0,0,1,997.35,710.32Z" transform="translate(-764.01 -343.4)"/></g></svg>