<svg id="圖層_1" data-name="圖層 1" xmlns="http://www.w3.org/2000/svg" viewBox="0 0 146 148"><defs><style>.cls-1,.cls-3{fill:none;}.cls-2{fill:#bc4b4b;}.cls-3{stroke:#bc4b4b;stroke-width:5px;}</style></defs><title>circleee</title><g id="Group_172" data-name="Group 172"><g id="Path_111" data-name="Path 111"><path class="cls-1" d="M959.67,466c40.31,0,73,33.13,73,74s-32.69,74-73,74-73-33.13-73-74S919.35,466,959.67,466Z" transform="translate(-886.67 -466)"/><path class="cls-2" d="M959.67,468A69.72,69.72,0,0,0,932,473.65a71.19,71.19,0,0,0-22.57,15.43,72.24,72.24,0,0,0-8.67,10.66A71.5,71.5,0,0,0,894.25,512a73.19,73.19,0,0,0,0,56.06,71.5,71.5,0,0,0,6.55,12.23A71.77,71.77,0,0,0,920,599.71,71.17,71.17,0,0,0,932,606.35a70.36,70.36,0,0,0,55.25,0,71.19,71.19,0,0,0,22.57-15.43,72.53,72.53,0,0,0,0-101.84,71.19,71.19,0,0,0-22.57-15.43A69.71,69.71,0,0,0,959.67,468m0-2c40.31,0,73,33.13,73,74s-32.69,74-73,74-73-33.13-73-74S919.35,466,959.67,466Z" transform="translate(-886.67 -466)"/></g><g id="Ellipse_10" data-name="Ellipse 10"><ellipse class="cls-1" cx="73.5" cy="74" rx="64.5" ry="65"/><ellipse class="cls-3" cx="73.5" cy="74" rx="62" ry="62.5"/></g></g></svg>